<svg width="24" height="24" viewBox="0 0 24 24" fill="none" xmlns="http://www.w3.org/2000/svg">
<g id="bxs:bell">
<path id="Vector" d="M12 22.0002C12.6193 22.001 13.2235 21.8088 13.7285 21.4504C14.2335 21.092 14.6143 20.5851 14.818 20.0002H9.182C9.38566 20.5851 9.76648 21.092 10.2715 21.4504C10.7765 21.8088 11.3807 22.001 12 22.0002ZM19 14.5862V10.0002C19 6.78324 16.815 4.07324 13.855 3.25824C13.562 2.52024 12.846 2.00024 12 2.00024C11.154 2.00024 10.438 2.52024 10.145 3.25824C7.185 4.07424 5 6.78324 5 10.0002V14.5862L3.293 16.2932C3.19996 16.3859 3.12617 16.4961 3.07589 16.6175C3.0256 16.7388 2.99981 16.8689 3 17.0002V18.0002C3 18.2655 3.10536 18.5198 3.29289 18.7073C3.48043 18.8949 3.73478 19.0002 4 19.0002H20C20.2652 19.0002 20.5196 18.8949 20.7071 18.7073C20.8946 18.5198 21 18.2655 21 18.0002V17.0002C21.0002 16.8689 20.9744 16.7388 20.9241 16.6175C20.8738 16.4961 20.8 16.3859 20.707 16.2932L19 14.5862Z" fill="#447FC1"/>
</g>
</svg>
