<svg width="24" height="24" viewBox="0 0 24 24" fill="none" xmlns="http://www.w3.org/2000/svg">
<g id="jam:dashboard-f">
<path id="Vector" d="M2.83201 19.0649C2.28142 17.8034 1.99813 16.4414 2.00001 15.0649C2.00001 9.54194 6.47701 5.06494 12 5.06494C17.523 5.06494 22 9.54194 22 15.0649C22.0019 16.4414 21.7186 17.8034 21.168 19.0649H2.83201ZM12 10.0649C12.2652 10.0649 12.5196 9.95958 12.7071 9.77205C12.8947 9.58451 13 9.33016 13 9.06494C13 8.79972 12.8947 8.54537 12.7071 8.35783C12.5196 8.1703 12.2652 8.06494 12 8.06494C11.7348 8.06494 11.4804 8.1703 11.2929 8.35783C11.1054 8.54537 11 8.79972 11 9.06494C11 9.33016 11.1054 9.58451 11.2929 9.77205C11.4804 9.95958 11.7348 10.0649 12 10.0649ZM7.00001 14.0649C7.26523 14.0649 7.51958 13.9596 7.70712 13.772C7.89465 13.5845 8.00001 13.3302 8.00001 13.0649C8.00001 12.7997 7.89465 12.5454 7.70712 12.3578C7.51958 12.1703 7.26523 12.0649 7.00001 12.0649C6.73479 12.0649 6.48044 12.1703 6.2929 12.3578C6.10537 12.5454 6.00001 12.7997 6.00001 13.0649C6.00001 13.3302 6.10537 13.5845 6.2929 13.772C6.48044 13.9596 6.73479 14.0649 7.00001 14.0649ZM17 14.0649C17.2652 14.0649 17.5196 13.9596 17.7071 13.772C17.8947 13.5845 18 13.3302 18 13.0649C18 12.7997 17.8947 12.5454 17.7071 12.3578C17.5196 12.1703 17.2652 12.0649 17 12.0649C16.7348 12.0649 16.4804 12.1703 16.2929 12.3578C16.1054 12.5454 16 12.7997 16 13.0649C16 13.3302 16.1054 13.5845 16.2929 13.772C16.4804 13.9596 16.7348 14.0649 17 14.0649ZM12 11.0649C11.7348 11.0649 11.4804 11.1703 11.2929 11.3578C11.1054 11.5454 11 11.7997 11 12.0649V15.0649C11 15.3302 11.1054 15.5845 11.2929 15.772C11.4804 15.9596 11.7348 16.0649 12 16.0649C12.2652 16.0649 12.5196 15.9596 12.7071 15.772C12.8947 15.5845 13 15.3302 13 15.0649V12.0649C13 11.7997 12.8947 11.5454 12.7071 11.3578C12.5196 11.1703 12.2652 11.0649 12 11.0649Z" fill="white"/>
</g>
</svg>
