<svg width="24" height="24" viewBox="0 0 24 24" fill="none" xmlns="http://www.w3.org/2000/svg">
<g id="heroicons:users-20-solid">
<path id="Vector" d="M8.40002 9.5999C9.3548 9.5999 10.2705 9.22062 10.9456 8.54549C11.6207 7.87036 12 6.95468 12 5.9999C12 5.04512 11.6207 4.12945 10.9456 3.45432C10.2705 2.77919 9.3548 2.3999 8.40002 2.3999C7.44524 2.3999 6.52957 2.77919 5.85443 3.45432C5.1793 4.12945 4.80002 5.04512 4.80002 5.9999C4.80002 6.95468 5.1793 7.87036 5.85443 8.54549C6.52957 9.22062 7.44524 9.5999 8.40002 9.5999ZM17.4 10.7999C18.1957 10.7999 18.9587 10.4838 19.5213 9.92122C20.0839 9.35861 20.4 8.59555 20.4 7.7999C20.4 7.00425 20.0839 6.24119 19.5213 5.67858C18.9587 5.11597 18.1957 4.7999 17.4 4.7999C16.6044 4.7999 15.8413 5.11597 15.2787 5.67858C14.7161 6.24119 14.4 7.00425 14.4 7.7999C14.4 8.59555 14.7161 9.35861 15.2787 9.92122C15.8413 10.4838 16.6044 10.7999 17.4 10.7999ZM1.93802 19.7135C1.70274 19.5669 1.51377 19.3566 1.39294 19.1071C1.27211 18.8576 1.22437 18.579 1.25522 18.3035C1.47645 16.5648 2.32412 14.9664 3.63939 13.8078C4.95467 12.6493 6.64727 12.0102 8.40002 12.0102C10.1528 12.0102 11.8454 12.6493 13.1606 13.8078C14.4759 14.9664 15.3236 16.5648 15.5448 18.3035C15.6144 18.8639 15.3384 19.4075 14.8608 19.7123C12.9327 20.9479 10.69 21.6031 8.40002 21.5999C6.1097 21.6037 3.8666 20.9489 1.93802 19.7135ZM17.4 19.1999H17.2728C17.3568 18.8435 17.3784 18.4667 17.3304 18.0803C17.1253 16.4307 16.4655 14.8706 15.4248 13.5743C16.0946 13.3108 16.8102 13.1837 17.5298 13.2006C18.2493 13.2175 18.9582 13.378 19.6148 13.6727C20.2715 13.9673 20.8626 14.3902 21.3535 14.9166C21.8445 15.4429 22.2253 16.062 22.4736 16.7375C22.5499 16.9531 22.5485 17.1887 22.4696 17.4034C22.3908 17.6181 22.2394 17.7985 22.0416 17.9135C20.6409 18.758 19.0356 19.2029 17.4 19.1999Z" fill="white"/>
</g>
</svg>
