<svg width="24" height="24" viewBox="0 0 24 24" fill="none" xmlns="http://www.w3.org/2000/svg">
<g id="heroicons:users-20-solid">
<path id="Vector" d="M8.40002 9.60015C9.3548 9.60015 10.2705 9.22086 10.9456 8.54573C11.6207 7.8706 12 6.95493 12 6.00015C12 5.04537 11.6207 4.12969 10.9456 3.45456C10.2705 2.77943 9.3548 2.40015 8.40002 2.40015C7.44524 2.40015 6.52957 2.77943 5.85443 3.45456C5.1793 4.12969 4.80002 5.04537 4.80002 6.00015C4.80002 6.95493 5.1793 7.8706 5.85443 8.54573C6.52957 9.22086 7.44524 9.60015 8.40002 9.60015ZM17.4 10.8001C18.1957 10.8001 18.9587 10.4841 19.5213 9.92147C20.0839 9.35886 20.4 8.5958 20.4 7.80015C20.4 7.0045 20.0839 6.24144 19.5213 5.67883C18.9587 5.11622 18.1957 4.80015 17.4 4.80015C16.6044 4.80015 15.8413 5.11622 15.2787 5.67883C14.7161 6.24144 14.4 7.0045 14.4 7.80015C14.4 8.5958 14.7161 9.35886 15.2787 9.92147C15.8413 10.4841 16.6044 10.8001 17.4 10.8001ZM1.93802 19.7137C1.70274 19.5671 1.51377 19.3569 1.39294 19.1074C1.27211 18.8579 1.22437 18.5793 1.25522 18.3037C1.47645 16.565 2.32412 14.9666 3.63939 13.8081C4.95467 12.6496 6.64727 12.0104 8.40002 12.0104C10.1528 12.0104 11.8454 12.6496 13.1606 13.8081C14.4759 14.9666 15.3236 16.565 15.5448 18.3037C15.6144 18.8641 15.3384 19.4077 14.8608 19.7125C12.9327 20.9481 10.69 21.6033 8.40002 21.6001C6.1097 21.6039 3.8666 20.9491 1.93802 19.7137ZM17.4 19.2001H17.2728C17.3568 18.8437 17.3784 18.4669 17.3304 18.0805C17.1253 16.4309 16.4655 14.8708 15.4248 13.5745C16.0946 13.311 16.8102 13.184 17.5298 13.2008C18.2493 13.2177 18.9582 13.3782 19.6148 13.6729C20.2715 13.9676 20.8626 14.3905 21.3535 14.9168C21.8445 15.4431 22.2253 16.0622 22.4736 16.7377C22.5499 16.9534 22.5485 17.1889 22.4696 17.4036C22.3908 17.6183 22.2394 17.7988 22.0416 17.9137C20.6409 18.7583 19.0356 19.2031 17.4 19.2001Z" fill="#447FC1"/>
</g>
</svg>
